<?xml version="1.0" standalone="no"?>
<!DOCTYPE svg PUBLIC "-//W3C//DTD SVG 20010904//EN"
 "http://www.w3.org/TR/2001/REC-SVG-20010904/DTD/svg10.dtd">
<svg version="1.0" xmlns="http://www.w3.org/2000/svg"
 width="700.000000pt" height="700.000000pt" viewBox="0 0 700.000000 700.000000"
 preserveAspectRatio="xMidYMid meet">
<metadata>
Created by potrace 1.11, written by Peter Selinger 2001-2013
</metadata>
<g transform="translate(0.000000,700.000000) scale(0.100000,-0.100000)"
fill="#000000" stroke="none">
<path d="M3437 6643 c-1 0 -61 -4 -134 -8 -72 -3 -142 -8 -155 -10 -13 -2 -50
-6 -83 -10 -90 -9 -120 -14 -230 -37 -55 -11 -119 -24 -143 -29 -292 -59 -691
-223 -997 -408 -99 -60 -316 -209 -335 -231 -3 -3 -27 -23 -55 -44 -273 -216
-571 -555 -767 -876 -211 -343 -383 -783 -444 -1130 -2 -14 -9 -47 -14 -75
-13 -70 -18 -102 -25 -165 -3 -30 -8 -66 -10 -80 -14 -85 -22 -505 -11 -610 2
-19 7 -66 10 -105 4 -38 9 -81 11 -95 2 -14 6 -45 10 -70 3 -25 8 -56 10 -70
3 -14 7 -34 9 -45 130 -677 437 -1275 901 -1755 154 -160 404 -380 429 -380 6
0 156 193 333 429 l321 429 -86 70 c-353 285 -636 706 -768 1140 -47 156 -71
270 -92 447 -9 78 -9 432 0 515 45 399 183 763 416 1100 36 52 70 100 76 106
6 7 33 38 61 70 210 249 469 451 758 593 272 134 519 206 812 238 139 15 475
8 590 -13 17 -3 41 -7 55 -8 179 -22 457 -114 673 -222 385 -192 738 -518 961
-888 60 -98 159 -297 176 -351 7 -22 16 -44 20 -50 21 -27 96 -304 118 -435
26 -148 32 -235 32 -415 -1 -137 -3 -183 -16 -275 -3 -25 -8 -63 -10 -85 -2
-21 -9 -55 -14 -75 -5 -19 -12 -51 -15 -70 -11 -57 -26 -111 -61 -220 -127
-392 -364 -753 -686 -1046 -31 -29 -77 -67 -102 -85 -26 -18 -46 -36 -46 -40
0 -5 159 -222 242 -329 10 -14 51 -68 89 -120 39 -52 78 -104 88 -115 9 -11
37 -49 62 -85 26 -36 56 -75 67 -88 11 -13 37 -48 58 -77 l37 -54 41 32 c588
462 994 1055 1207 1762 22 72 41 139 43 150 2 11 9 38 14 60 6 22 14 56 17 75
3 19 8 42 10 50 2 8 7 35 10 60 3 25 8 59 11 75 40 232 48 639 19 880 -2 17
-7 55 -10 85 -67 581 -343 1233 -719 1700 -139 171 -330 369 -474 489 -40 34
-78 66 -85 71 -127 108 -397 280 -596 380 -208 105 -510 221 -666 256 -5 1
-37 9 -70 17 -64 17 -253 54 -308 61 -17 2 -54 7 -82 11 -27 3 -64 8 -81 10
-53 7 -403 23 -407 18z"/>
<path d="M3458 5135 c-1 -1 -25 -5 -53 -8 -198 -20 -389 -158 -484 -351 -22
-44 -45 -108 -52 -141 -14 -74 -19 -190 -8 -227 6 -23 3 -31 -17 -46 -198
-140 -306 -252 -408 -425 -133 -224 -196 -531 -162 -779 3 -21 2 -38 -2 -39
-88 -8 -161 -29 -237 -66 -104 -52 -161 -98 -230 -189 -277 -362 -92 -891 352
-1004 150 -39 307 -22 448 47 100 50 224 174 276 275 l19 37 72 -33 c74 -34
169 -68 223 -81 158 -37 344 -43 493 -18 94 16 233 59 309 95 l50 25 23 -41
c76 -136 209 -246 356 -294 343 -115 713 80 820 433 29 96 25 267 -9 371 -68
207 -256 381 -457 424 -94 20 -88 16 -79 63 4 23 6 101 4 172 -8 393 -193 749
-508 979 -66 49 -77 61 -71 79 13 40 7 192 -10 255 -60 225 -225 398 -441 460
-61 18 -207 36 -217 27z"/>
</g>
</svg>
