<?xml version="1.0" encoding="UTF-8"?>
<svg width="604.8" height="544.8" version="1.1" viewBox="0 0 604.8 544.8" xml:space="preserve" xmlns="http://www.w3.org/2000/svg" xmlns:cc="http://creativecommons.org/ns#" xmlns:dc="http://purl.org/dc/elements/1.1/" xmlns:rdf="http://www.w3.org/1999/02/22-rdf-syntax-ns#"><metadata><rdf:RDF><cc:Work rdf:about=""><dc:format>image/svg+xml</dc:format><dc:type rdf:resource="http://purl.org/dc/dcmitype/StillImage"/><dc:title/></cc:Work></rdf:RDF></metadata><g transform="translate(-.14257 -3.73e-6)"><g fill-rule="evenodd"><path d="m302.41 3.73e-6 -7.7333 0.13333-7.7333 0.26667-7.7333 0.53333-7.7333 0.66667-7.4667 0.8-7.4667 1.0667-7.4667 1.3333-7.6 1.4667-7.2 1.6-7.3333 1.7333-7.2 1.8667-7.2 2.1333-7.0667 2.4-6.9333 2.4-6.9333 2.5333-6.8 2.9333-6.6667 2.8-6.8 3.2-6.5333 3.2-6.4 3.4667-6.4 3.6-6.4 3.7333-6 3.8667-6.1333 4-6.1333 4.1333-5.7333 4.2667-5.7333 4.4-5.7333 4.6667-5.4667 4.5333-5.4667 4.8-5.3333 5.0667-5.2 5.0667-5.0667 5.0667-4.8 5.3333-5.0667 5.4667-9.0667 11.2-4.5333 5.7333-4.2667 5.8667-4.1333 6.1333-4 6.1333-3.8667 6-3.7333 6.2667-3.4667 6.4-3.6 6.5333-3.2 6.6667-3.2 6.5333-2.8 6.8-2.8 6.6667-2.6667 6.9333-2.4 6.9333-2.4 7.0667-2.1333 7.2-1.8667 7.2-1.7333 7.2-1.6 7.4667-1.4667 7.4667-1.3333 7.3333-1.8667 15.2-0.66667 7.7333-0.53333 7.7333-0.26667 7.6v15.733l0.26667 7.6 0.53333 7.7333 0.66667 7.7333 1.8667 15.2 1.3333 7.4667 1.4667 7.3333 1.6 7.4667 1.7333 7.0667 1.8667 7.3333 2.1333 7.0667 4.8 14.133 2.6667 6.9333 5.6 13.6 6.4 13.067 3.6 6.5333 3.4667 6.4 3.7333 6.2667 3.8667 6.2667 4 6.1333 4.1333 5.8667 4.2667 6 4.5333 5.7333 9.0667 11.2 5.0667 5.3333 4.8 5.3333 5.0667 5.2 5.2 5.0667 5.3333 4.9333 5.4667 4.8 5.4667 4.6667 5.7333 4.5333 5.6 4.5333 56.8-75.6-0.13334-0.26666-7.8667-6-7.4667-6.5333-7.2-6.9333-6.9333-7.2-6.5333-7.7333-6.2667-7.7333-5.7333-8.2667-5.4667-8.2667-4.9333-8.8-2.4-4.4-2.2667-4.5333-2.1333-4.5333-2-4.6667-2-4.8-1.7333-4.6667-1.7333-4.8-1.6-4.9333-1.4667-4.8-1.3333-4.9333-1.2-5.0667-1.2-5.0667-0.93333-5.0667-0.8-5.0667-0.8-5.2-0.4-5.2-0.53333-5.3333-0.26667-5.3333-0.4-5.2v-10.933l0.4-5.2 0.26667-5.3333 0.53333-5.3333 0.4-5.0667 0.8-5.3333 0.8-5.0667 0.93333-5.2 1.2-4.9333 1.2-5.0667 1.3333-4.9333 1.4667-4.8 1.6-5.0667 1.7333-4.8 1.7333-4.5333 2-4.8 2-4.6667 2.1333-4.5333 2.2667-4.4 2.4-4.5333 4.9333-8.8 5.4667-8.4 5.7333-8 6.2667-7.8667 6.5333-7.4667 6.9333-7.4667 7.2-6.8 7.4667-6.4 7.8667-6.2667 8.1333-5.7333 8.5333-5.4667 8.5333-4.9333 4.5333-2.4 4.5333-2.2667 4.5333-2.1333 9.3333-4 9.6-3.4667 4.8-1.6 4.9333-1.4667 4.9333-1.2 5.0667-1.3333 4.9333-1.2 5.2-0.93333 4.9333-0.8 5.3333-0.8 5.0667-0.4 5.3333-0.53333 5.3333-0.26667 5.3333-0.4h10.8l5.2 0.4 5.3333 0.26667 5.3333 0.53333 5.2 0.4 5.2 0.8 5.0667 0.8 5.0667 0.93333 5.2 1.2 4.9333 1.3333 4.9333 1.2 4.9333 1.4667 4.8 1.6 9.6 3.4667 9.3333 4 4.6667 2.1333 4.4 2.2667 4.5333 2.4 8.6667 4.9333 8.5333 5.4667 8.1333 5.7333 7.7333 6.2667 7.6 6.4 7.2 6.8 6.9333 7.4667 6.5333 7.4667 6 7.8667 6 8 5.2 8.4 5.2 8.8 2.2667 4.5333 2.1333 4.4 2.2667 4.5333 2 4.6667 1.8667 4.8 2 4.5333 1.4667 4.8 1.6 5.0667 1.4667 4.8 1.4667 4.9333 1.0667 5.0667 1.2 4.9333 0.93334 5.2 0.93333 5.0667 0.66667 5.3333 0.66666 5.0667 0.8 10.667 0.13334 5.2 0.13333 5.4667-0.13333 5.4667-0.13334 5.2-0.4 5.3333-0.4 5.3333-0.66666 5.2-0.66667 5.2-0.93333 5.0667-0.93334 5.0667-1.2 5.0667-1.0667 5.0667-1.4667 4.9333-1.4667 4.8-1.6 4.9333-1.4667 4.8-2 4.6667-1.8667 4.8-2 4.6667-2.2667 4.5333-2.1333 4.5333-2.2667 4.4-5.2 8.8-5.2 8.2667-6 8.2667-6 7.7333-6.5333 7.7333-6.9333 7.2-7.2 6.9333-7.6 6.5333-7.7333 6-0.13334 0.13333 56.667 75.733 5.7333-4.5333 5.6-4.5333 5.6-4.6667 5.3333-4.8 5.3333-4.9333 5.3333-5.0667 4.9333-5.2 4.9333-5.3333 4.8-5.3333 4.8-5.6 4.5333-5.6 4.5333-5.7333 4.1333-6 4.1333-5.8667 4-6.1333 3.8667-6.2667 3.7333-6.2667 3.6-6.4 3.3333-6.5333 3.3333-6.5333 3.0667-6.5333 3.0667-6.8 2.6667-6.8 2.6667-6.9333 2.5333-7.0667 2.2667-7.0667 2-7.0667 2.1333-7.3333 1.7333-7.0667 1.6-7.4667 1.4667-7.3333 1.0667-7.4667 1.2-7.6 0.66667-7.6 0.8-7.7333 0.53333-7.7333 0.13334-7.6 0.13333-7.8667-0.13333-7.8667-0.13334-7.6-0.53333-7.7333-0.8-7.7333-0.66667-7.6-1.2-7.6-1.0667-7.3333-1.4667-7.4667-1.6-7.4667-1.7333-7.2-2.1333-7.2-2-7.2-2.2667-7.0667-2.5333-6.9333-2.6667-6.9333-2.6667-6.6667-3.0667-6.8-3.0667-6.5333-3.3333-6.6667-3.3333-6.5333-3.6-6.4-3.7333-6.2667-3.8667-6-4-6.1333-4.1333-6.1333-4.1333-5.8667-4.5333-5.7333-4.5333-5.6-4.8-5.6-4.8-5.4667-4.9333-5.3333-4.9333-5.0667-10.667-10.133-5.3333-4.8-5.6-4.5333-5.6-4.6667-5.7333-4.4-6-4.2667-5.8667-4.1333-6.1333-4-6.2667-3.8667-6.2667-3.7333-6.4-3.6-6.4-3.4667-6.5333-3.2-6.6667-3.2-6.8-2.8-6.8-2.9333-6.9333-2.5333-14.133-4.8-6.9333-2.1333-7.2-1.8667-7.4667-1.7333-7.3333-1.6-7.3333-1.4667-7.4667-1.3333-7.6-1.0667-7.6-0.8-7.6-0.66667-7.7333-0.53333-7.7333-0.26667zm-302.27 0zm604.8 544.8z" fill="#1f567d"/><path d="m240.14 203.36-0.52929 0.37304-4.4004 3.4668-4.4004 3.7344-4 3.8672-3.7324 4.1328-3.7344 4.2656-3.332 4.4004-3.2012 4.668-2.9336 4.9316-2.666 4.9336-2.4004 5.0664-2.1328 5.2012-1.8672 5.332-1.5996 5.4668-1.1992 5.4668-1.0664 5.6016-0.80078 5.5996-0.40039 5.5996-0.13281 5.7324 0.13281 5.6016 0.12695 1.334a65.92 66.054 0 0 1 3.9707-0.14063 65.92 66.054 0 0 1 65.92 66.053 65.92 66.054 0 0 1-5.4746 26.285l3.7246 1.668 5.1992 1.8672 5.4668 1.5996 5.4668 1.334 5.4668 1.0664 5.4668 0.66601 5.5996 0.40039 5.5996 0.13282v0.13281l5.5996-0.13281 5.4668-0.53321 5.6016-0.66601 5.4668-1.0664 5.4648-1.334 5.334-1.5996 5.2012-1.8672 1.7031-0.69922a65.92 66.054 0 0 1-5.9609-27.254 65.92 66.054 0 0 1 65.92-66.053 65.92 66.054 0 0 1 6.4941 0.32617l0.10937-1.5195 0.13281-5.6016-0.13281-5.7324-0.40039-5.5996-0.79883-5.5996-0.93359-5.6016-1.334-5.4668-1.5996-5.4668-1.8672-5.332-2.1328-5.2012-2.4004-5.0664-2.666-4.9336-2.9336-4.9316-3.0664-4.668-3.4668-4.4004-3.5996-4.2656-3.8672-4.1328-4-3.8672-4.2676-3.7344-4-3.1523a65.92 66.054 0 0 1-62.502 45.23 65.92 66.054 0 0 1-62.701-45.918z" fill="#7ca7c6"/><path d="m311.21 297.07 24.4-46.133-58.267 46.133h17.333l-24.4 46.267 58.267-46.267zm-40.933-46.133zm65.333 92.4z" fill="#fff"/></g><g transform="matrix(1.3333 0 0 -1.3333 -75.457 682.53)"><path d="m161 284.4z" fill="none" stroke="#fff" stroke-linejoin="round" stroke-miterlimit="10" stroke-width="7.9806"/></g><g transform="matrix(1.3333 0 0 -1.3333 -75.457 682.53)"><path d="m251.9 193.3z" fill="none" stroke="#fff" stroke-linejoin="round" stroke-miterlimit="10" stroke-width="7.9806"/></g><ellipse cx="199.81" cy="364" rx="55.319" ry="55.352" fill="#1f567d" stroke-width=".82448"/><g fill="#fff" fill-rule="evenodd"><path d="m220.41 326.8-4.9333 5.3333c0.13333 0.13333 6.8 6.2667 6.9333 14.4 0.13333 5.2-2.2667 10.133-7.0667 14.933-6.2667 6.2667-9.2 13.067-9.0667 20.133 0.26666 11.467 8.9333 19.333 9.2 19.6l4.9333-5.4667c-0.13334 0-6.6667-6.1333-6.9333-14.4-0.13334-4.9333 2.2667-10 7.0667-14.8 6.2667-6.2667 9.3333-13.067 9.2-20.267-0.4-11.333-8.9333-19.2-9.3333-19.467zm-14.267 0zm23.733 74.533z"/><path d="m211.48 346.27c-0.26667-11.333-8.9333-19.2-9.2-19.467l-4.9333 5.3333c0.13334 0.13333 6.6667 6.2667 6.9333 14.4 0.13333 5.0667-2.2667 10.133-7.0667 14.933-6.2667 6.1333-9.3333 12.933-9.0667 20.133 0.26667 11.467 8.9333 19.333 9.2 19.6l4.9333-5.4667c-0.13334 0-6.6667-6.1333-6.9333-14.4-0.13333-4.9333 2.2667-10 7.0667-14.8 6.2667-6.2667 9.2-13.067 9.0667-20.267zm-23.6-19.467zm23.733 74.533z"/><path d="m193.34 346.27c-0.26666-11.333-8.9333-19.2-9.3333-19.467l-4.8 5.3333c0 0.13333 6.6667 6.1333 6.9333 14.4 0 5.0667-2.2667 10.133-7.2 14.933-6.2667 6.2667-9.3333 13.067-9.0667 20.133 0.26666 11.467 8.9333 19.333 9.3333 19.733l4.8-5.6s-6.6667-6.1333-6.9333-14.4c-0.13334-5.0667 2.2667-10 7.0667-14.8 6.2667-6.2667 9.4667-13.067 9.2-20.267zm-23.733-19.467zm24 74.533z"/></g><g transform="matrix(1.3333 0 0 -1.3333 -75.457 682.53)"><path d="m312.7 284.2z" fill="none" stroke="#fff" stroke-linejoin="round" stroke-miterlimit="10" stroke-width="7.9806"/></g><g transform="matrix(1.3333 0 0 -1.3333 -75.457 682.53)"><path d="m403.6 193.1z" fill="none" stroke="#fff" stroke-linejoin="round" stroke-miterlimit="10" stroke-width="7.9806"/></g><ellipse cx="402.08" cy="364.33" rx="55.319" ry="55.352" fill="#1f567d" stroke-width=".82448"/><path d="m401.61 323.33s-48.667 69.2 0 82c49.6-12.8 0-82 0-82zm0 70.667c-19.6-5.0667 0-33.2 0-33.2s20.133 28.133 0 33.2zm-48.667-70.667zm98.267 82z" fill="#fff" fill-rule="evenodd"/><g transform="matrix(1.3333 0 0 -1.3333 -75.457 682.53)"><path d="m238.3 420.1z" fill="none" stroke="#fff" stroke-linejoin="round" stroke-miterlimit="10" stroke-width="7.9806"/></g><g transform="matrix(1.3333 0 0 -1.3333 -75.457 682.53)"><path d="m329.3 329z" fill="none" stroke="#fff" stroke-linejoin="round" stroke-miterlimit="10" stroke-width="7.9806"/></g><ellipse cx="302.94" cy="183.07" rx="55.319" ry="55.352" fill="#1f567d" stroke-width=".82448"/><path d="m339.48 174.13c0-2.4-2-4.5333-4.5333-4.5333h-4.8l-3.8667-10.533c-0.53333-1.6-2.2667-3.3333-3.8667-3.8667 0 0-5.3333-2-19.467-2s-19.6 2-19.6 2c-1.4667 0.53333-3.2 2.2667-3.8667 3.8667l-3.8667 10.533h-4.6667c-2.5333 0-4.5333 2.1333-4.5333 4.5333s2 4.4 4.5333 4.4h1.3333l-1.0667 3.3333c-0.53334 1.4667-1.0667 4.1333-1.0667 5.7333v19.333c0 3.3333 2.6667 6 6 6 3.2 0 6-2.6667 6-6v-2.9333h41.733v2.9333c0 3.3333 2.5333 6 5.8667 6 3.2 0 6-2.6667 6-6v-19.333c0-1.6-0.53333-4.2667-1.0667-5.7333l-1.0667-3.3333h1.3333c2.5333 0 4.5333-2 4.5333-4.4zm-53.6-13.333h34.133l4.5333 13.333h-43.2zm-5.3333 31.2c-2.4 0-4.4-2-4.4-4.4 0-2.5333 2-4.5333 4.4-4.5333 2.5333 0 4.5333 2 4.5333 4.5333 0 2.4-2 4.4-4.5333 4.4zm44.667 0c-2.4 0-4.4-2-4.4-4.4 0-2.5333 2-4.5333 4.4-4.5333 2.5333 0 4.5333 2 4.5333 4.5333 0 2.4-2 4.4-4.5333 4.4zm-58.8-38.8zm73.067 59.733z" fill="#fff" fill-rule="evenodd"/></g></svg>
